<svg width="650" height="650" viewBox="0 0 650 650" fill="none" xmlns="http://www.w3.org/2000/svg">
<circle opacity="0.8" cx="322.547" cy="320.5" r="281.721" fill="url(#paint0_linear_3_184)"/>
<path d="M562.226 87.2234C574.079 99.0765 578.84 116.99 577.203 139.339C575.566 161.686 567.534 188.4 553.887 217.751C526.596 276.448 476.895 345.589 411.244 411.239C345.594 476.89 276.454 526.59 217.757 553.881C188.406 567.528 161.692 575.56 139.345 577.197C116.996 578.834 99.0824 574.073 87.2294 562.22C75.3765 550.367 70.6153 532.454 72.2524 510.105C73.8894 487.758 81.9215 461.043 95.5683 431.693C122.86 372.995 172.561 303.856 238.211 238.206C303.862 172.555 373.001 122.854 431.699 95.5623C461.049 81.9155 487.764 73.8834 510.111 72.2464C532.46 70.6093 550.373 75.3705 562.226 87.2234Z" stroke="white"/>
<defs>
<linearGradient id="paint0_linear_3_184" x1="322.547" y1="38.7788" x2="322.547" y2="602.221" gradientUnits="userSpaceOnUse">
<stop stop-color="#32FFB1"/>
<stop offset="1" stop-color="#00EEFF"/>
</linearGradient>
</defs>
</svg>
